<?xml version="1.0" standalone="no"?>
<!DOCTYPE svg PUBLIC "-//W3C//DTD SVG 20010904//EN"
 "http://www.w3.org/TR/2001/REC-SVG-20010904/DTD/svg10.dtd">
<svg version="1.0" xmlns="http://www.w3.org/2000/svg"
 width="1280.000000pt" height="1280.000000pt" viewBox="0 0 1280.000000 1280.000000"
 preserveAspectRatio="xMidYMid meet">

<g transform="translate(0.000000,1280.000000) scale(0.100000,-0.100000)"
fill="#000000" stroke="none">
<path d="M5399 7003 c-8 -83 -7 -84 84 -81 l82 3 3 58 3 57 -84 0 -85 0 -3
-37z"/>
<path d="M4366 6868 c-3 -90 -8 -242 -12 -338 -3 -96 -9 -215 -15 -265 -5 -49
-9 -93 -9 -97 0 -5 37 -8 83 -8 l84 0 12 308 c7 169 15 315 17 325 9 30 17 19
109 -143 6 -10 22 -35 36 -56 53 -80 138 -212 205 -321 l69 -113 118 0 117 0
0 138 c0 125 5 239 26 605 l7 127 -82 0 c-70 0 -81 -2 -81 -17 0 -10 -7 -148
-15 -308 -8 -159 -15 -300 -15 -312 0 -38 -17 -26 -51 35 -33 59 -265 437
-325 529 -19 29 -34 57 -34 63 0 6 -45 10 -119 10 l-119 0 -6 -162z"/>
<path d="M9027 6943 c-42 -84 -165 -323 -240 -463 -19 -36 -60 -114 -92 -175
-32 -60 -61 -114 -66 -120 -20 -21 -4 -26 92 -23 l101 3 72 155 c40 85 75 154
79 153 4 -2 82 -3 175 -3 l167 0 21 -53 c11 -28 36 -98 54 -154 l33 -103 94 0
c51 0 93 4 93 8 0 5 -23 69 -51 143 -28 74 -59 159 -69 189 -11 30 -33 93 -51
140 -30 82 -61 170 -112 315 l-24 70 -117 3 -116 3 -43 -88z m204 -192 c27
-79 46 -147 43 -152 -9 -15 -244 -11 -244 4 -1 20 134 296 144 294 5 -2 30
-67 57 -146z"/>
<path d="M5862 6811 c-64 -17 -109 -56 -127 -111 -16 -48 -16 -54 -1 -95 17
-45 67 -97 168 -175 31 -24 62 -54 69 -67 17 -31 2 -73 -31 -90 -34 -17 -126
-16 -186 2 -75 23 -74 23 -68 -42 4 -32 7 -59 8 -60 8 -10 123 -23 195 -23
145 0 215 33 247 116 16 43 16 49 0 99 -16 53 -42 82 -127 145 -77 57 -111 96
-111 125 0 70 106 91 246 48 18 -5 19 -1 12 53 -4 32 -10 62 -14 66 -11 11
-243 18 -280 9z"/>
<path d="M6494 6810 c-40 -4 -88 -13 -107 -19 -31 -11 -35 -16 -41 -58 -3 -25
-4 -48 -2 -50 2 -3 35 5 73 17 94 29 198 37 244 17 62 -26 70 -96 15 -132 -13
-9 -80 -30 -147 -47 -133 -32 -178 -51 -222 -92 -31 -29 -57 -83 -57 -119 0
-50 31 -115 68 -144 36 -27 41 -28 157 -28 l119 0 18 48 18 47 -28 -7 c-15 -5
-51 -8 -80 -7 -43 0 -57 5 -82 29 -60 58 -25 128 82 164 34 12 69 21 77 21 9
0 37 11 63 24 27 13 50 21 52 18 4 -7 -10 -241 -18 -299 l-5 -33 88 0 88 0 8
233 c13 348 14 343 -69 392 -37 22 -59 26 -142 30 -55 2 -131 0 -170 -5z"/>
<path d="M7342 6809 c-18 -5 -50 -28 -72 -50 -42 -44 -56 -39 -45 17 l6 35
-81 -3 -82 -3 -4 -160 c-3 -88 -9 -215 -14 -283 -6 -68 -10 -141 -10 -163 l0
-39 88 0 88 0 -4 33 c-2 17 1 105 6 195 9 154 12 166 39 210 35 58 80 82 151
82 l53 0 -3 68 -3 67 -40 2 c-22 1 -55 -3 -73 -8z"/>
<path d="M7848 6809 c-104 -15 -223 -95 -268 -180 -40 -73 -52 -232 -25 -308
19 -55 54 -103 67 -95 6 4 8 3 5 -3 -10 -16 48 -52 105 -64 63 -14 166 -6 208
16 17 9 49 35 72 58 l41 42 -7 -89 c-9 -123 -31 -170 -93 -198 -60 -28 -176
-27 -278 1 -80 21 -79 22 -68 -59 l8 -54 75 -12 c41 -7 125 -13 185 -13 183
-1 265 34 311 133 20 43 24 67 24 156 0 99 12 337 26 551 l7 97 -54 11 c-69
15 -267 21 -341 10z m217 -130 c5 -6 5 -55 -2 -134 -10 -105 -16 -133 -40
-177 -39 -74 -86 -99 -175 -96 -36 2 -64 6 -62 10 2 4 -5 9 -16 13 -26 8 -59
72 -66 128 -12 87 47 210 119 249 49 26 216 31 242 7z"/>
<path d="M10005 6811 c-113 -18 -227 -104 -276 -207 -20 -42 -23 -65 -24 -164
0 -108 2 -118 27 -162 33 -55 92 -104 139 -115 19 -4 70 -7 114 -7 90 1 122
13 180 69 21 19 40 35 43 35 13 0 -8 -162 -27 -204 -17 -39 -29 -51 -68 -68
-61 -28 -164 -27 -276 0 l-79 20 7 -61 c3 -34 8 -63 11 -66 12 -12 170 -30
264 -30 170 -1 243 27 296 111 26 41 27 48 35 258 9 227 26 511 34 546 4 19
-2 23 -53 33 -76 15 -284 22 -347 12z m219 -128 c10 -7 0 -184 -14 -248 -30
-136 -150 -201 -265 -145 -54 26 -80 80 -80 165 0 117 72 213 176 235 42 8
165 4 183 -7z"/>
<path d="M10833 6801 c-22 -11 -51 -33 -64 -50 -12 -17 -26 -31 -31 -31 -4 0
-8 20 -8 45 l0 46 -77 -3 -78 -3 -3 -165 c-2 -91 -8 -236 -15 -323 l-12 -157
86 0 87 0 3 178 c4 173 5 178 34 237 40 79 78 105 156 105 l59 0 0 64 c0 49
-4 65 -16 70 -29 11 -79 6 -121 -13z"/>
<path d="M11319 6811 c-61 -12 -143 -54 -186 -97 -19 -19 -46 -61 -61 -92 -22
-49 -26 -70 -25 -152 0 -82 4 -102 26 -146 31 -61 87 -117 147 -147 39 -19 61
-22 175 -22 125 0 132 1 183 29 115 64 175 169 176 311 2 187 -114 307 -309
319 -44 3 -101 1 -126 -3z m185 -139 c50 -29 67 -62 73 -143 10 -139 -38 -232
-134 -258 -55 -16 -72 -14 -131 14 -43 20 -56 32 -72 67 -23 50 -27 158 -8
220 15 50 67 103 116 116 46 13 118 6 156 -16z"/>
<path d="M5395 6798 c-2 -7 -9 -121 -15 -253 -6 -132 -13 -273 -17 -312 l-6
-73 90 0 90 0 6 233 c4 127 10 274 13 325 l7 92 -82 0 c-56 0 -83 -4 -86 -12z"/>
<path d="M6940 5665 c0 -36 -2 -65 -4 -65 -2 0 -20 7 -41 16 -139 58 -250
-130 -141 -239 38 -39 125 -47 164 -15 12 10 16 10 19 1 3 -7 20 -13 39 -13
l34 0 0 190 0 190 -35 0 -35 0 0 -65z m-30 -115 c63 -63 19 -161 -65 -146 -64
12 -83 92 -35 144 26 28 73 29 100 2z"/>
<path d="M8927 5723 c-4 -3 -7 -34 -7 -68 l0 -62 -41 20 c-35 17 -45 18 -81 8
-78 -24 -118 -97 -97 -176 24 -87 102 -125 185 -90 25 10 40 12 42 5 2 -5 19
-10 38 -10 l34 0 0 190 0 190 -33 0 c-19 0 -37 -3 -40 -7z m-30 -175 c17 -15
23 -33 23 -62 0 -77 -73 -114 -125 -61 -73 72 27 194 102 123z"/>
<path d="M5777 5703 c-4 -3 -7 -84 -7 -179 0 -184 0 -183 52 -176 26 4 28 7
28 53 l0 49 58 0 c112 0 164 31 178 108 10 53 -26 116 -77 136 -40 16 -219 23
-232 9z m192 -64 c33 -12 43 -33 39 -85 -2 -19 -8 -30 -14 -27 -7 2 -15 0 -19
-6 -3 -6 -33 -11 -66 -11 l-59 0 0 63 c0 35 3 67 7 70 10 11 77 8 112 -4z"/>
<path d="M8170 5530 l0 -180 40 0 40 0 0 180 0 180 -40 0 -40 0 0 -180z"/>
<path d="M7797 5684 c-4 -4 -7 -22 -7 -41 0 -26 -4 -33 -20 -33 -15 0 -20 -7
-20 -25 0 -18 5 -25 20 -25 18 0 20 -7 20 -71 0 -115 38 -157 129 -144 43 6
45 8 29 34 -8 13 -23 21 -40 21 -35 0 -40 10 -40 73 1 92 -1 87 37 87 31 0 35
3 35 25 0 21 -5 25 -29 25 -33 0 -45 13 -45 50 -1 20 -7 26 -31 28 -17 2 -34
0 -38 -4z"/>
<path d="M9747 5684 c-4 -4 -7 -22 -7 -41 0 -26 -4 -33 -20 -33 -15 0 -20 -7
-20 -25 0 -18 5 -25 20 -25 18 0 20 -7 20 -65 0 -116 34 -160 116 -149 45 5
48 7 39 33 -4 13 -16 21 -38 23 l-32 3 -3 78 -3 77 36 0 c31 0 35 3 35 25 0
22 -4 25 -34 25 -33 0 -35 2 -38 38 -3 33 -6 37 -33 40 -17 2 -34 0 -38 -4z"/>
<path d="M6295 5623 c-11 -3 -28 -12 -38 -21 -17 -15 -19 -15 -28 1 -6 10 -22
17 -39 17 l-30 0 0 -135 0 -135 35 0 35 0 0 85 c0 94 16 125 65 125 22 0 25 4
25 35 0 19 -1 34 -2 34 -2 -1 -12 -4 -23 -6z"/>
<path d="M6457 5616 c-66 -24 -97 -66 -97 -133 0 -82 61 -138 150 -138 90 0
150 56 150 140 0 99 -105 167 -203 131z m104 -65 c19 -15 24 -29 24 -66 0 -54
-27 -85 -75 -85 -47 0 -75 31 -75 83 0 35 5 50 24 66 30 26 72 27 102 2z"/>
<path d="M7550 5618 c-142 -40 -141 -230 2 -269 53 -14 100 -5 138 28 31 25
31 26 10 40 -19 13 -25 13 -54 -1 -40 -19 -60 -20 -89 -5 -31 17 -37 28 -37
72 0 72 82 115 129 68 18 -18 20 -18 45 -2 l26 17 -22 22 c-43 40 -85 48 -148
30z"/>
<path d="M8456 5613 c-29 -12 -41 -13 -44 -5 -2 7 -19 12 -38 12 l-34 0 0
-135 0 -135 34 0 33 0 5 87 c4 79 7 88 32 110 33 28 60 29 86 3 17 -17 20 -33
20 -110 l0 -90 35 0 35 0 0 108 c0 100 -2 110 -22 130 -23 21 -70 42 -91 41
-7 0 -30 -7 -51 -16z"/>
<path d="M9506 5620 c-42 -13 -76 -49 -76 -81 0 -31 33 -68 65 -73 80 -15 100
-22 103 -38 6 -30 -42 -41 -100 -24 -49 14 -49 14 -61 -11 -13 -29 -2 -39 56
-49 95 -16 177 23 177 84 0 38 -24 58 -93 76 -68 18 -77 23 -77 42 0 26 44 38
92 26 37 -10 45 -9 56 5 19 26 15 31 -38 42 -58 12 -64 13 -104 1z"/>
<path d="M10075 5610 c-47 -24 -45 -24 -45 -5 0 10 -11 15 -35 15 l-35 0 0
-135 0 -135 40 0 40 0 0 83 c0 74 3 86 23 105 13 12 33 22 45 22 18 0 22 6 22
35 0 41 -3 42 -55 15z"/>
<path d="M7098 5548 c-2 -40 0 -90 3 -112 13 -75 80 -109 161 -81 26 9 44 11
46 5 2 -6 19 -10 38 -10 l34 0 0 135 0 135 -34 0 -34 0 -4 -91 c-5 -104 -15
-119 -80 -119 -50 0 -58 18 -58 124 l0 86 -34 0 -34 0 -4 -72z"/>
<path d="M9080 5525 c0 -109 13 -146 61 -170 36 -19 102 -15 128 9 16 15 19
15 24 1 4 -9 19 -15 37 -15 l30 0 0 135 0 135 -35 0 -35 0 0 -83 c0 -103 -13
-127 -70 -127 -57 0 -70 24 -70 127 l0 83 -35 0 -35 0 0 -95z"/>
<path d="M10170 5614 c0 -23 115 -272 124 -267 5 4 1 -6 -10 -20 -15 -21 -27
-26 -61 -27 -32 0 -45 -5 -53 -20 -8 -16 -6 -21 11 -31 33 -17 89 -13 118 8
18 14 49 71 98 184 39 90 72 167 72 172 1 4 -12 7 -29 7 -25 0 -33 -7 -53 -47
-13 -27 -32 -70 -42 -96 -11 -30 -22 -44 -27 -39 -6 6 -25 47 -44 93 -32 81
-34 84 -69 87 -19 2 -35 0 -35 -4z"/>
<path d="M3693 5484 c-6 -13 -8 -26 -3 -29 4 -3 11 7 14 21 9 35 4 39 -11 8z"/>
<path d="M3715 5468 c-4 -13 -6 -30 -5 -38 1 -10 -3 -9 -14 5 -11 16 -17 17
-27 8 -10 -10 -10 -18 0 -40 l12 -28 -19 24 c-17 21 -20 22 -26 6 -3 -10 -1
-25 6 -33 11 -13 10 -15 -3 -10 -11 4 -21 -3 -32 -27 -14 -30 -14 -34 1 -51
14 -15 14 -16 1 -6 -18 14 -29 6 -29 -20 0 -11 -4 -17 -9 -13 -5 3 -13 -5 -17
-17 -7 -23 -86 -139 -114 -168 -8 -9 -31 -34 -50 -55 -64 -72 -184 -171 -257
-215 -40 -24 -70 -47 -66 -53 3 -6 1 -7 -5 -3 -6 3 -35 -5 -64 -18 -111 -50
-133 -59 -146 -57 -8 1 -25 -5 -39 -14 -14 -10 -22 -12 -18 -5 6 9 3 9 -13 1
-12 -6 -32 -12 -46 -13 -14 -1 -28 -8 -30 -15 -3 -7 -20 -13 -38 -14 -31 -1
-32 -1 -8 -9 25 -8 25 -8 -5 -9 -16 -1 -46 -11 -65 -22 -31 -18 -32 -19 -8
-14 27 5 48 -9 26 -18 -8 -4 -7 -6 3 -6 22 -1 31 23 16 40 -10 11 -9 11 5 0
10 -7 15 -17 12 -22 -10 -17 128 2 222 31 245 76 432 194 600 382 56 62 153
202 174 249 5 13 14 31 20 39 16 26 62 144 64 165 0 11 5 26 10 34 6 10 6 12
-3 7 -8 -6 -10 0 -5 18 8 32 -1 35 -11 4z m-28 -50 c2 -17 0 -19 -7 -8 -5 8
-6 18 -4 22 8 12 10 10 11 -14z m-940 -834 c-3 -3 -12 -4 -19 -1 -8 3 -5 6 6
6 11 1 17 -2 13 -5z"/>
<path d="M1747 4973 c-12 -11 -8 -20 20 -38 23 -16 25 -16 20 -1 -10 26 7 18
20 -9 6 -14 7 -23 2 -19 -5 3 -9 3 -9 1 0 -6 98 -77 106 -77 3 0 2 5 -1 10 -8
13 5 13 25 0 13 -9 13 -10 0 -10 -19 0 75 -60 95 -60 8 0 15 5 15 11 0 6 -7 8
-17 4 -14 -5 -15 -4 -6 6 10 10 15 9 27 -1 9 -7 14 -16 11 -20 -3 -5 0 -12 6
-16 8 -4 9 -3 5 4 -4 7 -1 12 6 12 9 1 7 5 -5 14 -10 8 -15 20 -11 29 3 8 1
18 -5 22 -6 3 -11 -2 -11 -12 0 -15 -2 -14 -16 5 -8 12 -12 27 -8 34 5 8 2 9
-9 5 -9 -3 -16 -3 -16 1 3 20 -2 33 -11 27 -5 -3 -7 0 -4 9 8 20 -6 43 -16 26
-5 -9 -17 -9 -46 -1 -49 14 -67 14 -59 1 3 -5 21 -10 38 -11 l32 -1 -35 -10
c-24 -7 -36 -6 -38 1 -2 6 -9 8 -15 4 -6 -4 -8 0 -4 10 4 12 2 14 -11 10 -15
-6 -15 -5 -3 10 12 15 12 17 -4 10 -15 -5 -17 -3 -11 12 6 18 6 18 -12 2 -23
-21 -46 -22 -38 -2 6 16 3 19 -7 8z"/>
<path d="M1868 4953 c6 -2 18 -2 25 0 6 3 1 5 -13 5 -14 0 -19 -2 -12 -5z"/>
<path d="M2087 4789 c7 -7 15 -10 18 -7 3 3 -2 9 -12 12 -14 6 -15 5 -6 -5z"/>
<path d="M2105 4770 c-13 -6 -15 -9 -5 -9 8 0 22 4 30 9 18 12 2 12 -25 0z"/>
<path d="M2080 4746 c0 -2 9 -6 20 -9 11 -3 20 -1 20 4 0 5 -9 9 -20 9 -11 0
-20 -2 -20 -4z"/>
<path d="M2140 4730 c-9 -6 -10 -10 -3 -10 6 0 15 5 18 10 8 12 4 12 -15 0z"/>
<path d="M2668 4613 c7 -3 16 -2 19 1 4 3 -2 6 -13 5 -11 0 -14 -3 -6 -6z"/>
</g>
</svg>
